<?xml version="1.0" encoding="UTF-8" standalone="no"?>
<!-- Created with Inkscape (http://www.inkscape.org/) -->
<svg
   xmlns:svg="http://www.w3.org/2000/svg"
   xmlns="http://www.w3.org/2000/svg"
   version="1.0"
   width="241.601"
   height="241.60201"
   id="svg2355">
  <defs
     id="defs2357" />
  <g
     transform="translate(-644.91379,-422.98975)"
     id="layer1">
    <path
       d="M 765.71479,422.98975 C 832.24979,422.98975 886.51479,477.25575 886.51479,543.79075 C 886.51479,610.32575 832.24879,664.59175 765.71479,664.59175 C 699.17979,664.59275 644.91379,610.32575 644.91379,543.79075 C 644.91379,477.25575 699.17979,422.98975 765.71479,422.98975 z "
       style="fill:#004737;fill-rule:evenodd"
       id="path9" />
    <path
       d="M 765.71479,425.40575 C 830.91979,425.40575 884.09879,478.58675 884.09879,543.79075 C 884.09879,608.99475 830.91879,662.17575 765.71479,662.17575 C 700.51079,662.17575 647.32979,608.99375 647.32979,543.79075 C 647.32979,478.58675 700.51079,425.40575 765.71479,425.40575 z "
       style="fill:#ffffff;fill-rule:evenodd"
       id="path11" />
    <path
       d="M 765.71479,458.74475 C 812.55579,458.74475 850.76079,496.94875 850.76079,543.79075 C 850.76079,590.63275 812.55579,628.83675 765.71479,628.83675 C 718.87279,628.83675 680.66879,590.63275 680.66879,543.79075 C 680.66879,496.94875 718.87279,458.74475 765.71479,458.74475 z "
       style="fill:#004737;fill-rule:evenodd"
       id="path13" />
    <path
       d="M 765.71479,461.64575 C 810.95879,461.64575 847.85879,498.54575 847.85879,543.79075 C 847.85879,589.03575 810.95879,625.93575 765.71479,625.93575 C 720.46979,625.93575 683.56979,589.03575 683.56979,543.79075 C 683.56979,498.54575 720.47079,461.64575 765.71479,461.64575 z "
       style="fill:#ffffff;fill-rule:evenodd"
       id="path15" />
    <path
       d="M 768.20279,517.82075 L 772.66179,496.24975 L 802.05479,496.22275 C 809.32579,496.62875 813.26179,498.26875 818.45479,504.04175 C 821.93479,507.91175 823.88079,513.84075 823.64379,520.00475 C 823.36279,527.37375 818.97979,534.48575 814.64979,537.91375 C 809.82379,541.73575 805.51879,542.64675 802.17879,543.15175 L 787.94279,543.62975 L 792.69079,520.89575 L 796.92079,520.89775 C 798.80979,520.87475 800.46979,521.09875 800.48679,519.19175 C 800.49679,518.02675 798.84379,517.79575 796.92079,517.79575 L 768.20279,517.82075 z M 754.38279,585.02275 L 767.58179,520.84275 L 789.21879,520.85775 L 780.33579,564.48475 L 792.07179,564.46775 L 787.89779,584.99675 L 754.38279,585.02275 z M 751.05479,585.02275 L 769.73779,493.97875 L 741.89179,527.67675 L 747.75079,527.69575 L 720.55579,558.02375 L 726.89879,558.02375 L 702.84379,585.00675 L 751.05479,585.02275 z "
       style="fill:#004737;fill-rule:evenodd"
       id="path17" />
    <path
       d="M 675.48679,534.76475 L 656.47779,531.06975 L 657.22979,527.20075 L 673.00879,530.26775 L 674.87879,520.64775 L 678.10879,521.27475 L 675.48679,534.76475 z M 685.39479,501.46975 L 683.78679,505.44875 L 679.03479,505.36675 L 676.11079,512.60375 L 679.62179,515.75775 L 678.05479,519.63475 L 662.80279,505.27075 L 664.36479,501.40575 L 685.39479,501.46975 z M 675.51479,505.30775 L 667.78779,505.08875 L 673.51779,510.24775 L 675.51479,505.30775 z M 681.12979,496.01175 L 683.07979,492.68575 C 684.25779,493.26075 685.29779,493.43775 686.20379,493.21975 C 687.10279,493.00275 687.90779,492.41275 688.61379,491.44275 C 689.35979,490.41675 689.70579,489.48275 689.64479,488.64675 C 689.59079,487.80975 689.27179,487.17975 688.69179,486.75675 C 688.31679,486.48475 687.92079,486.36475 687.49879,486.39575 C 687.07579,486.41975 686.56979,486.63675 685.98079,487.04575 C 685.57879,487.32075 684.73079,488.00775 683.43579,489.09575 C 681.76979,490.49875 680.37679,491.31775 679.25979,491.55675 C 677.68679,491.89675 676.27479,491.61375 675.02479,490.70475 C 674.21879,490.11975 673.63479,489.34675 673.26379,488.37975 C 672.89679,487.41675 672.84179,486.37075 673.09679,485.24675 C 673.35779,484.12175 673.92479,482.95475 674.80679,481.74075 C 676.24879,479.75475 677.76579,478.58075 679.36279,478.20775 C 680.96079,477.84075 682.50179,478.15675 683.99179,479.16075 L 681.81479,482.45075 C 680.90279,481.99575 680.10479,481.86575 679.42579,482.05775 C 678.74279,482.24775 678.07779,482.79175 677.42579,483.68975 C 676.75279,484.61575 676.41079,485.48075 676.41379,486.28075 C 676.41079,486.79575 676.61579,487.20275 677.02379,487.49875 C 677.39879,487.77175 677.83379,487.84575 678.32879,487.72175 C 678.95779,487.56675 680.02179,486.84475 681.51379,485.55775 C 683.00979,484.27275 684.22179,483.40075 685.15079,482.94075 C 686.08479,482.48375 687.03979,482.29075 688.02679,482.36175 C 689.01179,482.43675 690.00279,482.83675 690.99879,483.55975 C 691.90379,484.21775 692.57179,485.08475 692.99279,486.16075 C 693.41679,487.23875 693.49079,488.37575 693.20479,489.57375 C 692.92279,490.77375 692.28079,492.05975 691.28379,493.43175 C 689.83279,495.42875 688.25879,496.62875 686.55779,497.02775 C 684.85479,497.42775 683.04379,497.08875 681.12979,496.01175 z M 701.65479,480.14775 L 696.04979,474.13675 L 683.11079,470.74575 L 686.49179,467.59275 L 695.11979,470.10675 L 693.14379,461.38875 L 696.46479,458.29175 L 698.94379,471.47475 L 704.53079,477.46575 L 701.65479,480.14775 z M 717.72679,466.91175 L 708.86279,449.51575 L 714.49679,446.64575 C 716.63079,445.55775 718.06979,444.93675 718.80679,444.78075 C 719.93479,444.53175 721.06179,444.67275 722.18079,445.20475 C 723.29879,445.73675 724.21079,446.69575 724.91379,448.07675 C 725.45879,449.14575 725.72279,450.14375 725.70379,451.06775 C 725.68579,451.99475 725.48679,452.81575 725.09979,453.53775 C 724.71479,454.25375 724.24779,454.83875 723.69979,455.28675 C 722.94679,455.87975 721.77479,456.58375 720.18279,457.39475 L 717.89479,458.56075 L 721.23779,465.12275 L 717.72679,466.91175 z M 713.87379,450.67175 L 716.38779,455.60575 L 718.30779,454.62675 C 719.69279,453.92075 720.57479,453.35875 720.94779,452.93975 C 721.32079,452.52075 721.54079,452.05075 721.60979,451.52575 C 721.67479,451.00275 721.57979,450.48475 721.31779,449.97075 C 720.99579,449.33875 720.54379,448.91075 719.96079,448.68775 C 719.38379,448.46675 718.77779,448.44875 718.15979,448.63675 C 717.69679,448.77075 716.83579,449.16275 715.57179,449.80675 L 713.87379,450.67175 z M 749.89879,454.56075 L 745.75379,455.67175 L 742.95979,451.82775 L 735.42079,453.84775 L 735.01379,458.54975 L 730.97379,459.63275 L 733.26579,438.80575 L 737.29179,437.72675 L 749.89879,454.56075 z M 740.88779,448.97975 L 736.41279,442.67775 L 735.74179,450.35975 L 740.88779,448.97975 z M 752.62379,454.30875 L 751.26179,434.83175 L 755.08879,434.56375 L 763.96979,447.01175 L 763.05979,434.00675 L 766.71479,433.75175 L 768.07679,453.22775 L 764.12779,453.50375 L 755.39079,441.35075 L 756.27879,454.05275 L 752.62379,454.30875 z M 773.40379,447.00375 L 777.24779,447.29775 C 777.24779,448.60875 777.54479,449.62075 778.13879,450.33975 C 778.72679,451.05275 779.60979,451.51875 780.79079,451.72675 C 782.04079,451.94675 783.03079,451.84875 783.75779,451.42775 C 784.48679,451.01175 784.91179,450.44975 785.03679,449.74275 C 785.11679,449.28575 785.05279,448.87775 784.83979,448.51275 C 784.63079,448.14375 784.21479,447.78375 783.58979,447.43375 C 783.16579,447.19275 782.17579,446.73175 780.63079,446.04475 C 778.64079,445.16275 777.29279,444.26975 776.58779,443.37075 C 775.59179,442.10575 775.22879,440.71175 775.49779,439.18975 C 775.66979,438.20975 776.10879,437.34475 776.81379,436.58775 C 777.51879,435.83575 778.43479,435.32775 779.55579,435.06375 C 780.68279,434.80475 781.97979,434.80275 783.45579,435.06375 C 785.87379,435.48975 787.59479,436.33775 788.62979,437.60975 C 789.66079,438.88475 790.05179,440.40775 789.80379,442.18775 L 785.89179,441.67375 C 785.90179,440.65475 785.66679,439.88075 785.19879,439.35375 C 784.72779,438.82375 783.94679,438.46375 782.85479,438.27175 C 781.72579,438.07275 780.79979,438.14475 780.08179,438.49775 C 779.61879,438.72075 779.34179,439.08275 779.25579,439.57975 C 779.17379,440.03675 779.29879,440.45975 779.62679,440.84975 C 780.04079,441.34775 781.15579,441.98775 782.96679,442.76475 C 784.77779,443.54475 786.09379,444.25275 786.91379,444.88675 C 787.73379,445.52575 788.32579,446.29975 788.69479,447.21875 C 789.05979,448.13675 789.13379,449.20275 788.92179,450.41575 C 788.72679,451.51675 788.23979,452.49775 787.45679,453.34775 C 786.67579,454.20175 785.68579,454.76575 784.48379,455.03475 C 783.28079,455.30775 781.84279,455.29375 780.17279,454.99975 C 777.74079,454.57075 775.97379,453.68275 774.86979,452.32875 C 773.76579,450.97175 773.27479,449.19675 773.40379,447.00375 z M 795.96079,458.64475 L 801.77379,443.50275 L 796.36779,441.42775 L 797.55179,438.34275 L 812.03579,443.90275 L 810.85179,446.98775 L 805.45679,444.91775 L 799.64379,460.05975 L 795.96079,458.64475 z M 810.50779,464.81375 L 817.88879,446.14775 L 821.19179,448.46075 L 815.91279,461.13475 L 826.52779,452.19675 L 830.36579,454.88475 L 825.34779,468.01875 L 835.62479,458.56575 L 838.87479,460.84175 L 823.79279,474.11475 L 820.36679,471.71675 L 825.55479,457.53075 L 814.00779,467.26275 L 810.50779,464.81375 z M 835.98979,472.47575 C 837.49179,471.16975 838.94479,470.29775 840.35479,469.86175 C 841.39379,469.54775 842.46579,469.41675 843.56779,469.47775 C 844.66579,469.54175 845.65979,469.79175 846.54679,470.23075 C 847.73779,470.81075 848.84979,471.69975 849.89279,472.90075 C 851.78179,475.07175 852.61779,477.39275 852.40279,479.86875 C 852.18979,482.34175 850.88479,484.62175 848.48679,486.70575 C 846.10579,488.77575 843.68179,489.74375 841.21379,489.61975 C 838.74679,489.49275 836.57279,488.34775 834.69379,486.18575 C 832.78779,483.99375 831.94179,481.66875 832.15079,479.21575 C 832.36479,476.75875 833.64579,474.51175 835.98979,472.47575 z M 838.75179,475.45275 C 837.08579,476.90175 836.15579,478.39075 835.96279,479.90675 C 835.77379,481.42775 836.19279,482.77775 837.22679,483.96575 C 838.25379,485.14875 839.52779,485.75375 841.04679,485.76975 C 842.56079,485.78475 844.16979,485.05375 845.87879,483.56875 C 847.56679,482.10075 848.50379,480.63575 848.69679,479.17375 C 848.88279,477.71175 848.44079,476.36575 847.37679,475.14075 C 846.31079,473.91175 845.02879,473.29175 843.53479,473.27075 C 842.04479,473.25375 840.45079,473.97575 838.75179,475.45275 z M 844.28479,498.85175 L 860.00979,486.37775 L 861.71479,490.03175 L 850.80679,498.36875 L 864.46679,495.93575 L 866.44679,500.18375 L 855.53479,509.04975 L 869.15979,506.00175 L 870.83779,509.59775 L 851.13879,513.55175 L 849.37279,509.76175 L 860.95879,500.07075 L 846.09179,502.72475 L 844.28479,498.85175 z M 853.33979,521.03975 L 872.50579,517.31375 L 875.26779,531.52175 L 872.02379,532.15275 L 870.01379,521.81375 L 865.76579,522.63975 L 867.63679,532.26075 L 864.40979,532.88775 L 862.53879,523.26675 L 857.32379,524.28075 L 859.40379,534.98575 L 856.17379,535.61375 L 853.33979,521.03975 z "
       style="fill:#004737;fill-rule:evenodd"
       id="path19" />
    <path
       d="M 757.90279,434.29975 L 759.31479,430.14775 L 763.48779,429.71075 L 760.25879,434.05275 L 757.90279,434.29975 z "
       style="fill:#004737;fill-rule:evenodd"
       id="path21" />
    <path
       d="M 662.87979,584.09775 C 674.37079,618.78975 711.46779,646.38475 755.66779,652.32275"
       style="fill:none;stroke:#004737;stroke-width:1.63890004;stroke-miterlimit:2.61310005"
       id="path23" />
    <path
       d="M 670.13079,575.24475 C 680.21479,612.36975 718.24879,641.80675 765.78579,645.17175"
       style="fill:none;stroke:#004737;stroke-width:1.63890004;stroke-miterlimit:2.61310005"
       id="path25" />
    <path
       d="M 681.97379,579.66975 C 692.45179,608.06875 721.78079,630.41175 758.21179,635.42975"
       style="fill:none;stroke:#004737;stroke-width:1.63890004;stroke-miterlimit:2.61310005"
       id="path27" />
    <path
       d="M 765.59879,645.05075 L 755.38879,652.45275"
       style="fill:none;stroke:#004737;stroke-width:1.63900006;stroke-miterlimit:2.61310005"
       id="path29" />
    <path
       d="M 765.44779,645.14675 L 757.95479,635.42975"
       style="fill:none;stroke:#004737;stroke-width:1.63900006;stroke-miterlimit:2.61310005"
       id="path31" />
    <path
       d="M 745.56379,650.61275 L 756.69479,644.17975 L 750.22279,633.97375"
       style="fill:none;stroke:#004737;stroke-width:1.63900006;stroke-miterlimit:2.61310005"
       id="path33" />
    <path
       d="M 735.94779,648.24975 L 747.99079,642.63475 L 742.23279,632.02875"
       style="fill:none;stroke:#004737;stroke-width:1.63900006;stroke-miterlimit:2.61310005"
       id="path35" />
    <path
       d="M 726.91979,645.28775 L 739.13079,640.37875 L 734.78079,629.57875"
       style="fill:none;stroke:#004737;stroke-width:1.63900006;stroke-miterlimit:2.61310005"
       id="path37" />
    <path
       d="M 717.94879,641.46275 L 730.68479,637.57675 L 727.64679,626.61775"
       style="fill:none;stroke:#004737;stroke-width:1.63900006;stroke-miterlimit:2.61310005"
       id="path39" />
    <path
       d="M 666.00979,592.13275 L 679.27179,596.20375 L 684.84179,586.20775"
       style="fill:none;stroke:#004737;stroke-width:1.63900006;stroke-miterlimit:2.61310005"
       id="path41" />
    <path
       d="M 670.13179,599.92375 L 683.85979,602.83575 L 688.30479,592.40275"
       style="fill:none;stroke:#004737;stroke-width:1.63900006;stroke-miterlimit:2.61310005"
       id="path43" />
    <path
       d="M 674.95279,607.23475 L 689.06379,609.09375 L 692.28779,598.44575"
       style="fill:none;stroke:#004737;stroke-width:1.63900006;stroke-miterlimit:2.61310005"
       id="path45" />
    <path
       d="M 680.60979,614.17775 L 694.72879,615.15875 L 696.97179,604.18075"
       style="fill:none;stroke:#004737;stroke-width:1.63900006;stroke-miterlimit:2.61310005"
       id="path47" />
    <path
       d="M 686.94779,620.61575 L 701.09479,620.70575 L 702.23279,609.55675"
       style="fill:none;stroke:#004737;stroke-width:1.63900006;stroke-miterlimit:2.61310005"
       id="path49" />
    <path
       d="M 707.94479,614.37575 L 707.82279,625.71775 L 693.98079,626.70975"
       style="fill:none;stroke:#004737;stroke-width:1.63900006;stroke-miterlimit:2.61310005"
       id="path51" />
    <path
       d="M 709.42379,637.16775 L 722.97579,634.27075 L 720.65179,623.10675"
       style="fill:none;stroke:#004737;stroke-width:1.63900006;stroke-miterlimit:2.61310005"
       id="path53" />
    <path
       d="M 701.52779,632.21875 L 715.08979,630.09275 L 714.21379,619.11875"
       style="fill:none;stroke:#004737;stroke-width:1.63900006;stroke-miterlimit:2.61310005"
       id="path55" />
    <path
       d="M 681.98879,579.66275 L 669.97379,574.53175 L 663.02379,584.30375 L 675.44579,589.28875 L 681.98879,579.66275 z "
       style="fill:none;stroke:#004737;stroke-width:1.63890004;stroke-miterlimit:2.61310005"
       id="path57" />
    <path
       d="M 868.46079,584.07875 C 856.97079,618.77075 819.87279,646.36575 775.67379,652.30375"
       style="fill:none;stroke:#004737;stroke-width:1.63890004;stroke-miterlimit:2.61310005"
       id="path59" />
    <path
       d="M 861.21079,575.22475 C 851.12679,612.34975 813.09379,641.78775 765.55579,645.15275"
       style="fill:none;stroke:#004737;stroke-width:1.63890004;stroke-miterlimit:2.61310005"
       id="path61" />
    <path
       d="M 849.36679,579.64975 C 838.88979,608.04975 809.55979,630.39275 773.12879,635.41075"
       style="fill:none;stroke:#004737;stroke-width:1.63890004;stroke-miterlimit:2.61310005"
       id="path63" />
    <path
       d="M 765.74279,645.03175 L 775.95279,652.43375"
       style="fill:none;stroke:#004737;stroke-width:1.63900006;stroke-miterlimit:2.61310005"
       id="path65" />
    <path
       d="M 765.89279,645.12775 L 773.38679,635.41175"
       style="fill:none;stroke:#004737;stroke-width:1.63900006;stroke-miterlimit:2.61310005"
       id="path67" />
    <path
       d="M 785.77679,650.59375 L 774.64579,644.15975 L 781.11679,633.95375"
       style="fill:none;stroke:#004737;stroke-width:1.63900006;stroke-miterlimit:2.61310005"
       id="path69" />
    <path
       d="M 795.39379,648.23075 L 783.35079,642.61575 L 789.10879,632.00975"
       style="fill:none;stroke:#004737;stroke-width:1.63900006;stroke-miterlimit:2.61310005"
       id="path71" />
    <path
       d="M 804.42179,645.26875 L 792.21079,640.35875 L 796.55879,629.55975"
       style="fill:none;stroke:#004737;stroke-width:1.63900006;stroke-miterlimit:2.61310005"
       id="path73" />
    <path
       d="M 813.39279,641.44275 L 800.65679,637.55675 L 803.69579,626.59875"
       style="fill:none;stroke:#004737;stroke-width:1.63900006;stroke-miterlimit:2.61310005"
       id="path75" />
    <path
       d="M 865.33179,592.11275 L 852.06979,596.18375 L 846.49979,586.18875"
       style="fill:none;stroke:#004737;stroke-width:1.63900006;stroke-miterlimit:2.61310005"
       id="path77" />
    <path
       d="M 861.20879,599.90475 L 847.48179,602.81575 L 843.03679,592.38375"
       style="fill:none;stroke:#004737;stroke-width:1.63900006;stroke-miterlimit:2.61310005"
       id="path79" />
    <path
       d="M 856.38879,607.21575 L 842.27779,609.07475 L 839.05279,598.42675"
       style="fill:none;stroke:#004737;stroke-width:1.63900006;stroke-miterlimit:2.61310005"
       id="path81" />
    <path
       d="M 850.73179,614.15975 L 836.61279,615.14075 L 834.36879,604.16275"
       style="fill:none;stroke:#004737;stroke-width:1.63900006;stroke-miterlimit:2.61310005"
       id="path83" />
    <path
       d="M 844.39379,620.59675 L 830.24579,620.68675 L 829.10679,609.53675"
       style="fill:none;stroke:#004737;stroke-width:1.63900006;stroke-miterlimit:2.61310005"
       id="path85" />
    <path
       d="M 823.39579,614.35675 L 823.51679,625.69875 L 837.35879,626.68975"
       style="fill:none;stroke:#004737;stroke-width:1.63900006;stroke-miterlimit:2.61310005"
       id="path87" />
    <path
       d="M 821.91779,637.14875 L 808.36479,634.25075 L 810.68879,623.08775"
       style="fill:none;stroke:#004737;stroke-width:1.63900006;stroke-miterlimit:2.61310005"
       id="path89" />
    <path
       d="M 829.81379,632.20075 L 816.25079,630.07475 L 817.12579,619.09975"
       style="fill:none;stroke:#004737;stroke-width:1.63900006;stroke-miterlimit:2.61310005"
       id="path91" />
    <path
       d="M 849.35279,579.64375 L 861.36679,574.51175 L 868.31779,584.28375 L 855.89379,589.26875 L 849.35279,579.64375 z "
       style="fill:none;stroke:#004737;stroke-width:1.63890004;stroke-miterlimit:2.61310005"
       id="path93" />
  </g>
</svg>
